# Blender v3.1.2 OBJ File: 'icosa.blend'
# www.blender.org
mtllib icosa.mtl
v 0.000000 -1.000000 0.000000
v 0.723600 -0.447215 0.525720
v -0.276385 -0.447215 0.850640
v -0.894425 -0.447215 0.000000
v -0.276385 -0.447215 -0.850640
v 0.723600 -0.447215 -0.525720
v 0.276385 0.447215 0.850640
v -0.723600 0.447215 0.525720
v -0.723600 0.447215 -0.525720
v 0.276385 0.447215 -0.850640
v 0.894425 0.447215 0.000000
v 0.000000 1.000000 0.000000
v 0.232893 -0.986549 0.716757
v 0.753646 -0.986549 0.000000
v -0.609715 -0.986548 0.442981
v -0.609715 -0.986548 -0.442981
v 0.232893 -0.986549 -0.716757
v 1.219431 -0.232890 0.000000
v 0.376825 -0.232891 1.159738
v -0.986538 -0.232892 0.716758
v -0.986538 -0.232892 -0.716758
v 0.376825 -0.232891 -1.159738
v 0.986538 0.232892 0.716758
v -0.376825 0.232891 1.159738
v -1.219432 0.232890 0.000000
v -0.376825 0.232891 -1.159738
v 0.986538 0.232892 -0.716758
v 0.609715 0.986548 0.442981
v -0.232893 0.986549 0.716757
v -0.753646 0.986549 0.000000
v -0.232893 0.986549 -0.716757
v 0.609715 0.986548 -0.442981
vt 0.272728 0.157461
vt 0.363637 0.000000
vt 0.363637 0.104974
vt 0.909091 0.000000
vt 1.000000 0.157461
vt 0.909091 0.104974
vt 0.727273 0.000000
vt 0.818182 0.157461
vt 0.727273 0.104974
vt 0.545455 0.000000
vt 0.636364 0.157461
vt 0.545455 0.104974
vt 0.454546 0.157461
vt 0.363637 0.209948
vt 0.090910 0.157461
vt 0.181819 0.209948
vt 0.909091 0.209948
vt 0.727273 0.209948
vt 0.545455 0.209948
vt 0.363637 0.314921
vt 0.272728 0.262434
vt 0.181819 0.314921
vt 0.090910 0.262434
vt 0.909091 0.314921
vt 0.818182 0.262434
vt 0.727273 0.314921
vt 0.636364 0.262434
vt 0.545455 0.314921
vt 0.454546 0.262434
vt 0.272728 0.367408
vt 0.000000 0.314921
vt 0.090910 0.367408
vt 0.818182 0.367408
vt 0.636364 0.367408
vt 0.454546 0.367408
vt 0.181819 0.000000
vt 0.181819 0.104974
vt 0.272728 0.472382
vt 0.090910 0.472382
vt 0.818182 0.472382
vt 0.636364 0.472382
vt 0.454546 0.472382
vn 0.0125 -0.6976 0.7164
vn 0.4110 -0.6976 0.5869
vn -0.4311 -0.6976 0.5722
vn -0.6775 -0.6976 -0.2332
vn 0.3968 -0.9179 0.0000
vn 0.1226 -0.9179 0.3774
vn -0.3210 -0.9179 0.2332
vn -0.3210 -0.9179 -0.2332
vn 0.1226 -0.9179 -0.3774
vn 0.9304 -0.3008 -0.2095
vn 0.4868 -0.3008 0.8201
vn -0.6295 -0.3008 0.7164
vn -0.8758 -0.3008 -0.3773
vn 0.0882 -0.3008 -0.9496
vn 0.8078 -0.0556 0.5869
vn -0.3085 -0.0556 0.9496
vn -0.9985 -0.0556 0.0000
vn -0.3085 -0.0556 -0.9496
vn 0.8078 -0.0556 -0.5869
vn 0.6852 -0.6976 -0.2095
vn 0.3085 0.0556 0.9496
vn -0.6775 -0.6976 0.2332
vn 0.0125 -0.6976 -0.7164
vn 0.9985 0.0556 0.0000
vn -0.8078 0.0556 0.5869
vn -0.4311 -0.6976 -0.5722
vn -0.8078 0.0556 -0.5869
vn 0.4110 -0.6976 -0.5869
vn 0.3085 0.0556 -0.9496
vn 0.6852 -0.6976 0.2095
vn 0.6295 0.3008 -0.7164
vn 0.6295 0.3008 0.7164
vn 0.8758 0.3008 0.3773
vn -0.4868 0.3008 0.8201
vn -0.0882 0.3008 0.9496
vn -0.9304 0.3008 -0.2095
vn -0.9304 0.3008 0.2095
vn -0.0882 0.3008 -0.9496
vn -0.4868 0.3008 -0.8201
vn 0.8758 0.3008 -0.3773
vn 0.3210 0.9179 0.2332
vn 0.0882 -0.3008 0.9496
vn -0.1226 0.9179 0.3774
vn -0.8758 -0.3008 0.3773
vn -0.3968 0.9179 0.0000
vn -0.6295 -0.3008 -0.7164
vn -0.1226 0.9179 -0.3774
vn 0.4868 -0.3008 -0.8201
vn 0.3210 0.9179 -0.2332
vn 0.9304 -0.3008 0.2095
vn 0.4311 0.6976 -0.5722
vn -0.4110 0.6976 0.5869
vn 0.6775 0.6976 0.2332
vn -0.6852 0.6976 -0.2095
vn -0.0125 0.6976 0.7164
vn -0.0125 0.6976 -0.7164
vn -0.6852 0.6976 0.2095
vn 0.6775 0.6976 -0.2332
vn -0.4110 0.6976 -0.5869
vn 0.4311 0.6976 0.5722
usemtl None
s off
f 2/1/1 1/2/1 14/3/1
f 1/4/2 3/5/2 15/6/2
f 1/7/3 4/8/3 16/9/3
f 1/10/4 5/11/4 17/12/4
f 2/1/5 6/13/5 18/14/5
f 3/15/6 2/1/6 19/16/6
f 4/8/7 3/5/7 20/17/7
f 5/11/8 4/8/8 21/18/8
f 6/13/9 5/11/9 22/19/9
f 2/1/10 11/20/10 23/21/10
f 3/15/11 7/22/11 24/23/11
f 4/8/12 8/24/12 25/25/12
f 5/11/13 9/26/13 26/27/13
f 6/13/14 10/28/14 27/29/14
f 7/22/15 11/20/15 28/30/15
f 8/31/16 7/22/16 29/32/16
f 9/26/17 8/24/17 30/33/17
f 10/28/18 9/26/18 31/34/18
f 11/20/19 10/28/19 32/35/19
f 1/36/20 2/1/20 13/37/20
f 2/1/21 3/15/21 13/37/21
f 3/15/22 1/36/22 13/37/22
f 1/2/23 6/13/23 14/3/23
f 6/13/24 2/1/24 14/3/24
f 3/5/25 4/8/25 15/6/25
f 4/8/26 1/4/26 15/6/26
f 4/8/27 5/11/27 16/9/27
f 5/11/28 1/7/28 16/9/28
f 5/11/29 6/13/29 17/12/29
f 6/13/30 1/10/30 17/12/30
f 6/13/31 11/20/31 18/14/31
f 11/20/32 2/1/32 18/14/32
f 2/1/33 7/22/33 19/16/33
f 7/22/34 3/15/34 19/16/34
f 3/5/35 8/24/35 20/17/35
f 8/24/36 4/8/36 20/17/36
f 4/8/37 9/26/37 21/18/37
f 9/26/38 5/11/38 21/18/38
f 5/11/39 10/28/39 22/19/39
f 10/28/40 6/13/40 22/19/40
f 11/20/41 7/22/41 23/21/41
f 7/22/42 2/1/42 23/21/42
f 7/22/43 8/31/43 24/23/43
f 8/31/44 3/15/44 24/23/44
f 8/24/45 9/26/45 25/25/45
f 9/26/46 4/8/46 25/25/46
f 9/26/47 10/28/47 26/27/47
f 10/28/48 5/11/48 26/27/48
f 10/28/49 11/20/49 27/29/49
f 11/20/50 6/13/50 27/29/50
f 11/20/51 12/38/51 28/30/51
f 12/38/52 7/22/52 28/30/52
f 7/22/53 12/39/53 29/32/53
f 12/39/54 8/31/54 29/32/54
f 8/24/55 12/40/55 30/33/55
f 12/40/56 9/26/56 30/33/56
f 9/26/57 12/41/57 31/34/57
f 12/41/58 10/28/58 31/34/58
f 10/28/59 12/42/59 32/35/59
f 12/42/60 11/20/60 32/35/60
